<svg xmlns="http://www.w3.org/2000/svg" viewBox="0 0 256 256" width="256" height="256" role="img" aria-label="StegoCLI logo"><defs><linearGradient id="mtile" x1="0" y1="0" x2="1" y2="1"><stop offset="0" stop-color="#312E81"/><stop offset="1" stop-color="#1E1B4B"/></linearGradient></defs><rect x="0" y="0" width="256" height="256" rx="56" fill="url(#mtile)"/><rect x="36" y="36" width="22" height="22" rx="5" fill="#4338CA"/><rect x="63" y="36" width="22" height="22" rx="5" fill="#4338CA"/><rect x="90" y="36" width="22" height="22" rx="5" fill="#4338CA"/><rect x="117" y="36" width="22" height="22" rx="5" fill="#4338CA"/><rect x="144" y="36" width="22" height="22" rx="5" fill="#4338CA"/><rect x="171" y="36" width="22" height="22" rx="5" fill="#4338CA"/><rect x="198" y="36" width="22" height="22" rx="5" fill="#4338CA"/><rect x="36" y="63" width="22" height="22" rx="5" fill="#4338CA"/><rect x="63" y="63" width="22" height="22" rx="5" fill="#4338CA"/><rect x="90" y="63" width="22" height="22" rx="5" fill="#4338CA"/><rect x="117" y="63" width="22" height="22" rx="5" fill="#A5B4FC"/><rect x="144" y="63" width="22" height="22" rx="5" fill="#4338CA"/><rect x="171" y="63" width="22" height="22" rx="5" fill="#4338CA"/><rect x="198" y="63" width="22" height="22" rx="5" fill="#4338CA"/><rect x="36" y="90" width="22" height="22" rx="5" fill="#4338CA"/><rect x="63" y="90" width="22" height="22" rx="5" fill="#4338CA"/><rect x="90" y="90" width="22" height="22" rx="5" fill="#4338CA"/><rect x="117" y="90" width="22" height="22" rx="5" fill="#4338CA"/><rect x="144" y="90" width="22" height="22" rx="5" fill="#A5B4FC"/><rect x="171" y="90" width="22" height="22" rx="5" fill="#4338CA"/><rect x="198" y="90" width="22" height="22" rx="5" fill="#4338CA"/><rect x="36" y="117" width="22" height="22" rx="5" fill="#4338CA"/><rect x="63" y="117" width="22" height="22" rx="5" fill="#4338CA"/><rect x="90" y="117" width="22" height="22" rx="5" fill="#4338CA"/><rect x="117" y="117" width="22" height="22" rx="5" fill="#4338CA"/><rect x="144" y="117" width="22" height="22" rx="5" fill="#4338CA"/><rect x="171" y="117" width="22" height="22" rx="5" fill="#A5B4FC"/><rect x="198" y="117" width="22" height="22" rx="5" fill="#4338CA"/><rect x="36" y="144" width="22" height="22" rx="5" fill="#4338CA"/><rect x="63" y="144" width="22" height="22" rx="5" fill="#4338CA"/><rect x="90" y="144" width="22" height="22" rx="5" fill="#4338CA"/><rect x="117" y="144" width="22" height="22" rx="5" fill="#4338CA"/><rect x="144" y="144" width="22" height="22" rx="5" fill="#A5B4FC"/><rect x="171" y="144" width="22" height="22" rx="5" fill="#4338CA"/><rect x="198" y="144" width="22" height="22" rx="5" fill="#4338CA"/><rect x="36" y="171" width="22" height="22" rx="5" fill="#4338CA"/><rect x="63" y="171" width="22" height="22" rx="5" fill="#FB7185"/><rect x="90" y="171" width="22" height="22" rx="5" fill="#4338CA"/><rect x="117" y="171" width="22" height="22" rx="5" fill="#A5B4FC"/><rect x="144" y="171" width="22" height="22" rx="5" fill="#4338CA"/><rect x="171" y="171" width="22" height="22" rx="5" fill="#4338CA"/><rect x="198" y="171" width="22" height="22" rx="5" fill="#4338CA"/><rect x="36" y="198" width="22" height="22" rx="5" fill="#4338CA"/><rect x="63" y="198" width="22" height="22" rx="5" fill="#4338CA"/><rect x="90" y="198" width="22" height="22" rx="5" fill="#4338CA"/><rect x="117" y="198" width="22" height="22" rx="5" fill="#4338CA"/><rect x="144" y="198" width="22" height="22" rx="5" fill="#4338CA"/><rect x="171" y="198" width="22" height="22" rx="5" fill="#4338CA"/><rect x="198" y="198" width="22" height="22" rx="5" fill="#4338CA"/></svg>