<svg xmlns="http://www.w3.org/2000/svg" viewBox="0 0 1280 640" width="1280" height="640">
<defs>
<linearGradient id="bg" x1="0" y1="0" x2="1" y2="1">
  <stop offset="0" stop-color="#262261"/>
  <stop offset="1" stop-color="#15123A"/>
</linearGradient>
<linearGradient id="btile" x1="0" y1="0" x2="1" y2="1"><stop offset="0" stop-color="#312E81"/><stop offset="1" stop-color="#1E1B4B"/></linearGradient>
</defs>
<rect width="1280" height="640" fill="url(#bg)"/>
<rect x="298" y="394" width="34" height="34" rx="6" fill="#818CF8" opacity="0.05"/><rect x="88" y="64" width="44" height="44" rx="6" fill="#818CF8" opacity="0.05"/><rect x="182" y="364" width="44" height="44" rx="6" fill="#818CF8" opacity="0.05"/><rect x="108" y="509" width="44" height="44" rx="6" fill="#818CF8" opacity="0.05"/><rect x="66" y="78" width="26" height="26" rx="6" fill="#818CF8" opacity="0.05"/><rect x="846" y="61" width="34" height="34" rx="6" fill="#818CF8" opacity="0.05"/><rect x="175" y="554" width="26" height="26" rx="6" fill="#818CF8" opacity="0.05"/><rect x="111" y="569" width="34" height="34" rx="6" fill="#818CF8" opacity="0.05"/><rect x="447" y="586" width="26" height="26" rx="6" fill="#818CF8" opacity="0.05"/><rect x="1171" y="589" width="26" height="26" rx="6" fill="#818CF8" opacity="0.05"/><rect x="91" y="216" width="34" height="34" rx="6" fill="#818CF8" opacity="0.05"/><rect x="1130" y="126" width="26" height="26" rx="6" fill="#818CF8" opacity="0.05"/><rect x="848" y="137" width="34" height="34" rx="6" fill="#818CF8" opacity="0.05"/><rect x="231" y="574" width="44" height="44" rx="6" fill="#818CF8" opacity="0.05"/>
<g transform="translate(490.0,84) scale(1.171875)"><rect x="0" y="0" width="256" height="256" rx="56" fill="url(#btile)"/><rect x="36" y="36" width="22" height="22" rx="5" fill="#4338CA"/><rect x="63" y="36" width="22" height="22" rx="5" fill="#4338CA"/><rect x="90" y="36" width="22" height="22" rx="5" fill="#4338CA"/><rect x="117" y="36" width="22" height="22" rx="5" fill="#4338CA"/><rect x="144" y="36" width="22" height="22" rx="5" fill="#4338CA"/><rect x="171" y="36" width="22" height="22" rx="5" fill="#4338CA"/><rect x="198" y="36" width="22" height="22" rx="5" fill="#4338CA"/><rect x="36" y="63" width="22" height="22" rx="5" fill="#4338CA"/><rect x="63" y="63" width="22" height="22" rx="5" fill="#4338CA"/><rect x="90" y="63" width="22" height="22" rx="5" fill="#4338CA"/><rect x="117" y="63" width="22" height="22" rx="5" fill="#A5B4FC"/><rect x="144" y="63" width="22" height="22" rx="5" fill="#4338CA"/><rect x="171" y="63" width="22" height="22" rx="5" fill="#4338CA"/><rect x="198" y="63" width="22" height="22" rx="5" fill="#4338CA"/><rect x="36" y="90" width="22" height="22" rx="5" fill="#4338CA"/><rect x="63" y="90" width="22" height="22" rx="5" fill="#4338CA"/><rect x="90" y="90" width="22" height="22" rx="5" fill="#4338CA"/><rect x="117" y="90" width="22" height="22" rx="5" fill="#4338CA"/><rect x="144" y="90" width="22" height="22" rx="5" fill="#A5B4FC"/><rect x="171" y="90" width="22" height="22" rx="5" fill="#4338CA"/><rect x="198" y="90" width="22" height="22" rx="5" fill="#4338CA"/><rect x="36" y="117" width="22" height="22" rx="5" fill="#4338CA"/><rect x="63" y="117" width="22" height="22" rx="5" fill="#4338CA"/><rect x="90" y="117" width="22" height="22" rx="5" fill="#4338CA"/><rect x="117" y="117" width="22" height="22" rx="5" fill="#4338CA"/><rect x="144" y="117" width="22" height="22" rx="5" fill="#4338CA"/><rect x="171" y="117" width="22" height="22" rx="5" fill="#A5B4FC"/><rect x="198" y="117" width="22" height="22" rx="5" fill="#4338CA"/><rect x="36" y="144" width="22" height="22" rx="5" fill="#4338CA"/><rect x="63" y="144" width="22" height="22" rx="5" fill="#4338CA"/><rect x="90" y="144" width="22" height="22" rx="5" fill="#4338CA"/><rect x="117" y="144" width="22" height="22" rx="5" fill="#4338CA"/><rect x="144" y="144" width="22" height="22" rx="5" fill="#A5B4FC"/><rect x="171" y="144" width="22" height="22" rx="5" fill="#4338CA"/><rect x="198" y="144" width="22" height="22" rx="5" fill="#4338CA"/><rect x="36" y="171" width="22" height="22" rx="5" fill="#4338CA"/><rect x="63" y="171" width="22" height="22" rx="5" fill="#FB7185"/><rect x="90" y="171" width="22" height="22" rx="5" fill="#4338CA"/><rect x="117" y="171" width="22" height="22" rx="5" fill="#A5B4FC"/><rect x="144" y="171" width="22" height="22" rx="5" fill="#4338CA"/><rect x="171" y="171" width="22" height="22" rx="5" fill="#4338CA"/><rect x="198" y="171" width="22" height="22" rx="5" fill="#4338CA"/><rect x="36" y="198" width="22" height="22" rx="5" fill="#4338CA"/><rect x="63" y="198" width="22" height="22" rx="5" fill="#4338CA"/><rect x="90" y="198" width="22" height="22" rx="5" fill="#4338CA"/><rect x="117" y="198" width="22" height="22" rx="5" fill="#4338CA"/><rect x="144" y="198" width="22" height="22" rx="5" fill="#4338CA"/><rect x="171" y="198" width="22" height="22" rx="5" fill="#4338CA"/><rect x="198" y="198" width="22" height="22" rx="5" fill="#4338CA"/></g>
<text x="640.0" y="476" text-anchor="middle" font-family="DejaVu Sans, sans-serif" font-weight="bold" font-size="104">
  <tspan fill="#FFFFFF">Stego</tspan><tspan fill="#FB7185" font-family="DejaVu Sans Mono, monospace">CLI</tspan>
</text>
<text x="640.0" y="534" text-anchor="middle" font-family="DejaVu Sans, sans-serif" font-size="31" fill="#C7D2FE">
  Hide encrypted text inside any image, straight from your terminal.
</text>
<text x="640.0" y="582" text-anchor="middle" font-family="DejaVu Sans Mono, monospace" font-size="23" fill="#818CF8" letter-spacing="1">
  AES-256-GCM  ·  LSB  ·  any image in  ·  PNG out
</text>
</svg>